HIERARCHY
ROOT root
{
	OFFSET	0	13.1	24.9
	CHANNELS 6  Xposition Yposition Zposition Xrotation Yrotation Zrotation
	JOINT spine_1
	{
		OFFSET	0	9.99999	0
		CHANNELS 3  Xrotation Yrotation Zrotation
		JOINT spine_2
		{
			OFFSET	0	112	-10
			CHANNELS 3  Xrotation Yrotation Zrotation
			JOINT spine_3
			{
				OFFSET	0	206.5	19.3
				CHANNELS 3  Xrotation Yrotation Zrotation
				JOINT spine_4
				{
					OFFSET	0	110.4	14.6
					CHANNELS 3  Xrotation Yrotation Zrotation
					JOINT neck_1
					{
						OFFSET	0	71.8	-50.3
						CHANNELS 3  Xrotation Yrotation Zrotation
						JOINT neck_2
						{
							OFFSET	0	86.2	-25.8
							CHANNELS 3  Xrotation Yrotation Zrotation
							JOINT head_ee
							{
								OFFSET	0	179.8	-8.7
								CHANNELS 3  Xrotation Yrotation Zrotation
								End Site
								{
									OFFSET	1	0	0
								}
							}
						}
					}
					JOINT left_clavicle
					{
						OFFSET	-43.2	22.4	-70.8
						CHANNELS 3  Xrotation Yrotation Zrotation
						JOINT left_shoulder
						{
							OFFSET	-93.9	-5.79999	48.7
							CHANNELS 3  Xrotation Yrotation Zrotation
							JOINT left_elbow
							{
								OFFSET	-291.4	-30.8	15.2
								CHANNELS 3  Xrotation Yrotation Zrotation
								JOINT left_lowarm_twist
								{
									OFFSET	-110.7	-3.89999	13.6
									CHANNELS 3  Xrotation Yrotation Zrotation
									JOINT left_hand
									{
										OFFSET	-110.7	-3.89999	13.6
										CHANNELS 3  Xrotation Yrotation Zrotation
										JOINT left_ee
										{
											OFFSET	-80.8	-5.10001	12.1
											CHANNELS 3  Xrotation Yrotation Zrotation
											End Site
											{
												OFFSET	1	0	0
											}
										}
									}
								}
							}
						}
					}
					JOINT right_clavicle
					{
						OFFSET	43.2	22.4	-70.8
						CHANNELS 3  Xrotation Yrotation Zrotation
						JOINT right_shoulder
						{
							OFFSET	93.9	-5.79999	48.7
							CHANNELS 3  Xrotation Yrotation Zrotation
							JOINT right_elbow
							{
								OFFSET	291.4	-30.8	15.2
								CHANNELS 3  Xrotation Yrotation Zrotation
								JOINT right_lowarm_twist
								{
									OFFSET	110.7	-3.89999	13.6
									CHANNELS 3  Xrotation Yrotation Zrotation
									JOINT right_hand
									{
										OFFSET	110.7	-3.89999	13.6
										CHANNELS 3  Xrotation Yrotation Zrotation
										JOINT right_ee
										{
											OFFSET	80.8	-5.10001	12.1
											CHANNELS 3  Xrotation Yrotation Zrotation
											End Site
											{
												OFFSET	1	0	0
											}
										}
									}
								}
							}
						}
					}
				}
			}
		}
	}
	JOINT left_hip
	{
		OFFSET	-82.8	-127.5	0.300001
		CHANNELS 3  Xrotation Yrotation Zrotation
		JOINT left_knee
		{
			OFFSET	-28.2	-396.7	2.2
			CHANNELS 3  Xrotation Yrotation Zrotation
			JOINT left_ankle
			{
				OFFSET	-11.7	-411.3	35.4
				CHANNELS 3  Xrotation Yrotation Zrotation
				JOINT left_toes
				{
					OFFSET	0	-60	-88.6
					CHANNELS 3  Xrotation Yrotation Zrotation
					JOINT left_foot_ee
					{
						OFFSET	-22.5	-16.5	-42.2
						CHANNELS 3  Xrotation Yrotation Zrotation
						End Site
						{
							OFFSET	1	0	0
						}
					}
				}
			}
		}
	}
	JOINT right_hip
	{
		OFFSET	82.8	-127.5	0.300001
		CHANNELS 3  Xrotation Yrotation Zrotation
		JOINT right_knee
		{
			OFFSET	28.2	-396.7	2.2
			CHANNELS 3  Xrotation Yrotation Zrotation
			JOINT right_ankle
			{
				OFFSET	11.7	-411.3	35.4
				CHANNELS 3  Xrotation Yrotation Zrotation
				JOINT right_toes
				{
					OFFSET	0	-60	-88.6
					CHANNELS 3  Xrotation Yrotation Zrotation
					JOINT right_foot_ee
					{
						OFFSET	22.5	-16.5	-42.2
						CHANNELS 3  Xrotation Yrotation Zrotation
						End Site
						{
							OFFSET	1	0	0
						}
					}
				}
			}
		}
	}
}
MOTION
Frames: 13
Frame Time: 0.02
2800.94 716.97 -1473.77 11.2063345733 70.0998457096 -9.90027984069 -0.98446 -0.177188 -1.10243 -0.98379 -0.106683 -1.11147 -0.981178 0.148288 -1.10669 -0.982887 -0.0283421 -1.11622 -19.4584 9.79845 7.96066 -19.5679 14.7837 11.3988 -0.0 0.0 -0.0 7.55486 13.1008 14.1856 10.1566 -16.6763 69.2987 3.3803 -59.1407 1.91834 11.845 0.264426 -1.48731 -0.0782142 27.7561 10.4745 -0.0 0.0 -0.0 9.92735 -1.46112 -19.4288 -29.0634 18.867 -56.0477 0.587649 16.2306 -0.0837959 -10.0513 0.460588 -1.19804 6.4298 -32.8509 -55.7065 0.0 0.0 0.0 -5.4413 9.64085 1.40902 -25.1701 0.198561 3.82651 39.6814 19.328 -4.98378 -16.4297 0.0 0.0 -0.0 0.0 -0.0 27.5181 -8.51093 -0.223568 -7.43233 -0.2339 -1.11586 -17.3231 24.2441 -3.10059 16.2689 -0.0 -0.0 0.0 0.0 0.0 
2770.59375704 717.853 -1487.9621823 13.6685310491 71.4747964128 -12.171850265 -1.06906 -0.147385 -1.24613 -1.0682 -0.067798 -1.25299 -1.06604 0.220115 -1.23537 -1.06817 0.0222658 -1.25462 -18.3867 8.83471 5.4191 -18.5472 14.1102 8.509 -0.0 0.0 -0.0 7.50756 13.477 14.0783 7.13586 -16.1188 69.3309 3.30907 -58.6014 1.85737 10.7291 0.252706 -1.34525 -0.24421 25.969 8.89219 -0.0 0.0 -0.0 10.3258 -0.873805 -20.2799 -29.6735 18.8537 -55.0176 0.604447 16.6692 -0.0885527 -10.8634 0.50688 -1.29105 6.8197 -33.6618 -60.0003 0.0 0.0 0.0 -5.92805 10.451 -0.661354 -29.1416 0.0759857 4.42358 35.1092 22.0572 -4.59689 -18.1602 0.0 0.0 -0.0 0.0 -0.0 27.8349 -8.11169 0.761687 -12.2622 -0.30758 -1.8531 -21.1871 28.3536 -3.99197 13.2051 -0.0 -0.0 0.0 0.0 0.0 
2760.36836033 722.027 -1499.82380116 12.7443501341 71.5012391063 -11.2545329858 -1.10338 -0.132622 -1.20591 -1.10258 -0.055624 -1.21191 -1.10077 0.22331 -1.19246 -1.10276 0.0321959 -1.21276 -18.1289 8.27057 5.11033 -18.2613 13.1596 7.96287 -0.0 0.0 -0.0 7.41741 14.096 13.8815 6.03528 -15.4351 68.9056 3.19676 -57.7157 1.76196 8.90517 0.227602 -1.11364 -0.250188 24.9487 8.47574 -0.0 0.0 -0.0 11.0132 -0.245156 -21.7494 -28.9312 18.6441 -54.3189 0.569228 15.7475 -0.0787216 -11.4548 0.54142 -1.35837 7.00239 -34.072 -62.2429 0.0 0.0 0.0 -5.66344 10.4928 -1.60952 -29.4817 0.0635702 4.47429 33.3883 23.8485 -4.45814 -19.4791 0.0 0.0 -0.0 0.0 -0.0 27.511 -8.62276 -0.154186 -13.2837 -0.315185 -2.00964 -20.6857 28.2877 -3.89406 10.2808 -0.0 -0.0 0.0 0.0 0.0 
2760.74048816 722.027 -1500.39438258 12.2328930965 70.7109025876 -10.7139623908 -1.10338 -0.132622 -1.20591 -1.10258 -0.055624 -1.21191 -1.10077 0.22331 -1.19246 -1.10276 0.0321959 -1.21276 -18.1289 8.27057 5.11033 -18.2613 13.1596 7.96287 -0.0 0.0 -0.0 7.41741 14.096 13.8815 6.03528 -15.4351 68.9056 3.19676 -57.7157 1.76196 8.90517 0.227602 -1.11364 -0.250188 24.9487 8.47574 -0.0 0.0 -0.0 11.0132 -0.245156 -21.7494 -28.9312 18.6441 -54.3189 0.569228 15.7475 -0.0787216 -11.4548 0.54142 -1.35837 7.00239 -34.072 -62.2429 0.0 0.0 0.0 -5.66344 10.4928 -1.60952 -29.4817 0.0635702 4.47429 33.3883 23.8485 -4.45814 -19.4791 0.0 0.0 -0.0 0.0 -0.0 27.511 -8.62276 -0.154186 -13.2837 -0.315185 -2.00964 -20.6857 28.2877 -3.89406 10.2808 -0.0 -0.0 0.0 0.0 0.0 
2736.23488842 729.518 -1509.73130783 12.5790878258 72.0273237219 -10.5806044193 -1.44153 -0.178346 -1.34325 -1.44053 -0.0925182 -1.35187 -1.43745 0.227294 -1.33584 -1.43994 0.0134913 -1.35497 -16.1747 7.5419 3.95622 -16.2763 12.1971 6.37492 -0.0 0.0 -0.0 7.9174 14.6959 14.6841 2.6134 -13.6116 69.2764 2.83273 -54.5149 1.45964 4.1188 0.126801 -0.510706 -0.287061 21.3875 6.8964 -0.0 0.0 -0.0 11.2869 1.22328 -22.4214 -27.0381 19.6404 -53.575 0.632973 17.4093 -0.0969117 -13.9577 0.695256 -1.63926 7.23343 -33.8218 -65.8119 0.0 0.0 0.0 -6.74111 12.3887 -2.21053 -27.0773 0.144869 4.11427 27.5051 26.9766 -3.86049 -21.2828 0.0 0.0 -0.0 0.0 -0.0 27.4714 -8.80851 -0.349266 -17.5358 -0.316832 -2.66189 -15.7395 21.8632 -2.74268 8.33205 -0.0 -0.0 0.0 0.0 0.0 
2714.35591775 736.193 -1513.98312478 11.5152605915 71.135629219 -10.5076509652 -1.47852 -0.122903 -1.29465 -1.47759 -0.040279 -1.29985 -1.47588 0.26673 -1.27283 -1.47813 0.0623807 -1.29897 -15.4796 8.34124 5.18217 -15.5545 12.9451 7.71787 -0.0 0.0 -0.0 8.04502 16.7292 14.7123 0.0768324 -12.253 69.2603 2.47172 -50.7531 1.17256 2.13304 0.0702564 -0.263365 -0.35549 21.1951 6.41685 -0.0 0.0 -0.0 11.4176 1.52133 -22.7187 -26.4737 19.7662 -52.1215 0.665721 18.2515 -0.106939 -14.2084 0.711339 -1.66702 7.34366 -32.6796 -68.3305 0.0 0.0 0.0 -6.27229 14.2844 -1.43199 -28.7832 0.0887468 4.37004 23.1824 27.5489 -3.33183 -22.4882 0.0 0.0 -0.0 0.0 -0.0 25.7242 -8.65703 0.343279 -17.5647 -0.316678 -2.66632 -12.9422 19.997 -2.20802 7.91322 -0.0 -0.0 0.0 0.0 0.0 
2714.50107102 736.193 -1514.29419352 11.3961938767 70.9337155329 -10.3817499568 -1.47852 -0.122903 -1.29465 -1.47759 -0.040279 -1.29985 -1.47588 0.26673 -1.27283 -1.47813 0.0623807 -1.29897 -15.4796 8.34124 5.18217 -15.5545 12.9451 7.71787 -0.0 0.0 -0.0 8.04502 16.7292 14.7123 0.0768324 -12.253 69.2603 2.47172 -50.7531 1.17256 2.13304 0.0702564 -0.263365 -0.35549 21.1951 6.41685 -0.0 0.0 -0.0 11.4176 1.52133 -22.7187 -26.4737 19.7662 -52.1215 0.665721 18.2515 -0.106939 -14.2084 0.711339 -1.66702 7.34366 -32.6796 -68.3305 0.0 0.0 0.0 -6.27229 14.2844 -1.43199 -28.7832 0.0887468 4.37004 23.1824 27.5489 -3.33183 -22.4882 0.0 0.0 -0.0 0.0 -0.0 25.7242 -8.65703 0.343279 -17.5647 -0.316678 -2.66632 -12.9422 19.997 -2.20802 7.91322 -0.0 -0.0 0.0 0.0 0.0 
2714.71137323 736.193 -1514.73977701 11.2297187382 70.6437480761 -10.2054579593 -1.47852 -0.122903 -1.29465 -1.47759 -0.040279 -1.29985 -1.47588 0.26673 -1.27283 -1.47813 0.0623807 -1.29897 -15.4796 8.34124 5.18217 -15.5545 12.9451 7.71787 -0.0 0.0 -0.0 8.04502 16.7292 14.7123 0.0768324 -12.253 69.2603 2.47172 -50.7531 1.17256 2.13304 0.0702564 -0.263365 -0.35549 21.1951 6.41685 -0.0 0.0 -0.0 11.4176 1.52133 -22.7187 -26.4737 19.7662 -52.1215 0.665721 18.2515 -0.106939 -14.2084 0.711339 -1.66702 7.34366 -32.6796 -68.3305 0.0 0.0 0.0 -6.27229 14.2844 -1.43199 -28.7832 0.0887468 4.37004 23.1824 27.5489 -3.33183 -22.4882 0.0 0.0 -0.0 0.0 -0.0 25.7242 -8.65703 0.343279 -17.5647 -0.316678 -2.66632 -12.9422 19.997 -2.20802 7.91322 -0.0 -0.0 0.0 0.0 0.0 
2697.12590369 736.218 -1517.40726959 13.1487513915 70.1701698717 -12.7335986672 -1.64679 -0.0745444 -1.26049 -1.64591 0.00580861 -1.26268 -1.64529 0.306409 -1.22496 -1.64737 0.10912 -1.25797 -14.9836 8.15808 4.14673 -15.0827 13.1466 6.62709 -0.0 0.0 -0.0 8.44473 17.2541 15.3147 -0.411842 -9.64705 69.3727 1.96341 -44.1998 0.797316 0.545752 0.0189094 -0.0671355 -0.263331 18.0613 5.72952 -0.0 0.0 -0.0 11.106 2.42483 -22.1006 -26.791 21.7193 -51.4067 0.677643 18.5562 -0.110703 -15.6618 0.806969 -1.82658 7.43248 -33.5993 -69.5539 0.0 0.0 0.0 -5.45395 15.4847 -1.8562 -32.9838 -0.0817365 4.99198 18.4791 28.809 -2.73081 -22.9878 0.0 0.0 -0.0 0.0 -0.0 24.1642 -8.12028 1.18088 -19.139 -0.30489 -2.90757 -11.4558 17.784 -1.91191 8.6472 -0.0 -0.0 0.0 0.0 0.0 
2678.40058949 735.834 -1520.90936536 16.0436540103 70.2874535821 -15.9439852415 -1.70228 -0.141727 -1.01426 -1.70171 -0.0769036 -1.02122 -1.69979 0.169497 -1.00999 -1.70121 0.00786967 -1.02408 -13.9691 7.59736 3.36987 -14.0527 12.4386 5.59319 -0.0 0.0 -0.0 8.79665 18.0932 15.7913 -1.30377 -7.57397 68.9614 1.56822 -37.8392 0.537551 -1.4111 -0.0518519 0.172736 -0.516678 16.36 3.49294 -0.0 0.0 -0.0 10.7674 3.96472 -21.4384 -25.0152 23.4517 -52.8057 0.64223 17.6482 -0.0996999 -16.536 0.866436 -1.92138 7.44277 -33.6024 -69.7634 0.0 0.0 0.0 -4.13377 15.2417 -3.38336 -37.9972 -0.344292 5.71585 13.4387 29.1008 -2.02643 -23.4003 0.0 0.0 -0.0 0.0 -0.0 22.3941 -7.94649 1.55929 -20.4456 -0.290075 -3.10751 -8.02465 15.4895 -1.30739 10.8195 -0.0 -0.0 0.0 0.0 0.0 
2666.80974232 740.693 -1529.3574282 17.6681883064 70.7427662333 -17.6717038241 -1.71115 -0.109465 -0.877412 -1.71072 -0.0534129 -0.882599 -1.70949 0.159309 -0.869745 -1.71054 0.0199549 -0.883988 -14.2865 8.52317 3.82561 -14.3981 13.9632 6.36151 -0.0 0.0 -0.0 8.50836 17.3994 15.4028 -2.82376 -7.36236 69.0316 1.29933 -32.7658 0.382006 -2.45809 -0.0930682 0.300058 -0.320135 14.3666 3.89068 -0.0 0.0 -0.0 11.096 4.27247 -22.1581 -24.1546 25.9121 -52.7 0.611693 16.8577 -0.0906427 -19.0229 1.04347 -2.18604 7.42412 -34.3744 -68.8901 0.0 0.0 0.0 -3.45432 13.1602 -4.51972 -40.7638 -0.516074 6.10487 5.89444 27.3547 -0.899111 -24.1297 0.0 0.0 -0.0 0.0 -0.0 20.9217 -7.49646 1.19227 -20.5398 -0.288831 -3.12191 -8.12909 15.4859 -1.3246 12.6783 -0.0 -0.0 0.0 0.0 0.0 
2659.66508946 745.377 -1535.01235361 17.5336968569 70.3915867585 -17.6751002813 -2.00907 -0.0379782 -0.713441 -2.00879 0.00749575 -0.714412 -2.00862 0.181819 -0.69093 -2.00928 0.0704201 -0.710973 -15.0117 8.98348 4.95654 -15.1164 14.2513 7.66946 -0.0 0.0 -0.0 8.57216 19.1472 15.2993 -3.1831 -5.51703 68.8577 1.18345 -30.3798 0.321324 -4.52243 -0.181129 0.548825 -0.703394 10.9746 0.0539228 -0.0 0.0 -0.0 11.0931 5.40138 -22.1879 -21.9469 25.7693 -53.655 0.620677 17.091 -0.0932655 -20.5245 1.15588 -2.34207 7.40537 -34.3869 -68.5203 0.0 0.0 0.0 -3.42165 8.37668 -3.26044 -41.8906 -0.591403 6.26089 5.31281 26.6639 -0.808314 -26.9809 0.0 0.0 -0.0 0.0 -0.0 19.4931 -6.06179 0.619119 -19.0622 -0.305618 -2.89582 -8.57167 14.2233 -1.38439 13.9335 -0.0 -0.0 0.0 0.0 0.0 
2661.61781589 745.377 -1539.33336812 16.1622881492 68.7026952807 -16.2115899319 -2.00907 -0.0379782 -0.713441 -2.00879 0.00749575 -0.714412 -2.00862 0.181819 -0.69093 -2.00928 0.0704201 -0.710973 -15.0117 8.98348 4.95654 -15.1164 14.2513 7.66946 -0.0 0.0 -0.0 8.57216 19.1472 15.2993 -3.1831 -5.51703 68.8577 1.18345 -30.3798 0.321324 -4.52243 -0.181129 0.548825 -0.703394 10.9746 0.0539228 -0.0 0.0 -0.0 11.0931 5.40138 -22.1879 -21.9469 25.7693 -53.655 0.620677 17.091 -0.0932655 -20.5245 1.15588 -2.34207 7.40537 -34.3869 -68.5203 0.0 0.0 0.0 -3.42165 8.37668 -3.26044 -41.8906 -0.591403 6.26089 5.31281 26.6639 -0.808314 -26.9809 0.0 0.0 -0.0 0.0 -0.0 19.4931 -6.06179 0.619119 -19.0622 -0.305618 -2.89582 -8.57167 14.2233 -1.38439 13.9335 -0.0 -0.0 0.0 0.0 0.0 
